<svg width="512" height="512" viewBox="0 0 512 512" fill="none" xmlns="http://www.w3.org/2000/svg">
<g clip-path="url(#clip0_14_41)">
<g filter="url(#filter0_d_14_41)">
<path d="M494.062 127.812V384.188C494.062 398.758 488.274 412.731 477.972 423.034C467.669 433.337 453.695 439.125 439.125 439.125H72.875C58.3047 439.125 44.3311 433.337 34.0283 423.034C23.7255 412.731 17.9375 398.758 17.9375 384.188V127.812M494.062 127.812C494.062 113.242 488.274 99.2686 477.972 88.9658C467.669 78.663 453.695 72.875 439.125 72.875H72.875C58.3047 72.875 44.3311 78.663 34.0283 88.9658C23.7255 99.2686 17.9375 113.242 17.9375 127.812M494.062 127.812V133.746C494.064 143.125 491.663 152.349 487.09 160.538C482.517 168.727 475.923 175.609 467.937 180.528L284.812 293.211C276.149 298.547 266.174 301.372 256 301.372C245.826 301.372 235.851 298.547 227.188 293.211L44.0633 180.553C36.0772 175.633 29.4834 168.752 24.9101 160.562C20.3369 152.373 17.9365 143.15 17.9375 133.77V127.812" fill="black"/>
<path d="M494.062 127.812V384.188C494.062 398.758 488.274 412.731 477.972 423.034C467.669 433.337 453.695 439.125 439.125 439.125H72.875C58.3047 439.125 44.3311 433.337 34.0283 423.034C23.7255 412.731 17.9375 398.758 17.9375 384.188V127.812M494.062 127.812C494.062 113.242 488.274 99.2686 477.972 88.9658C467.669 78.663 453.695 72.875 439.125 72.875H72.875C58.3047 72.875 44.3311 78.663 34.0283 88.9658C23.7255 99.2686 17.9375 113.242 17.9375 127.812M494.062 127.812V133.746C494.064 143.125 491.663 152.349 487.09 160.538C482.517 168.727 475.923 175.609 467.937 180.528L284.812 293.211C276.149 298.547 266.174 301.372 256 301.372C245.826 301.372 235.851 298.547 227.188 293.211L44.0633 180.553C36.0772 175.633 29.4834 168.752 24.9101 160.562C20.3369 152.373 17.9365 143.15 17.9375 133.77V127.812" stroke="white" stroke-width="35" stroke-linecap="round" stroke-linejoin="round"/>
</g>
</g>
<defs>
<filter id="filter0_d_14_41" x="-3.5625" y="55.375" width="519.125" height="409.25" filterUnits="userSpaceOnUse" color-interpolation-filters="sRGB">
<feFlood flood-opacity="0" result="BackgroundImageFix"/>
<feColorMatrix in="SourceAlpha" type="matrix" values="0 0 0 0 0 0 0 0 0 0 0 0 0 0 0 0 0 0 127 0" result="hardAlpha"/>
<feOffset dy="4"/>
<feGaussianBlur stdDeviation="2"/>
<feComposite in2="hardAlpha" operator="out"/>
<feColorMatrix type="matrix" values="0 0 0 0 0 0 0 0 0 0 0 0 0 0 0 0 0 0 0.25 0"/>
<feBlend mode="normal" in2="BackgroundImageFix" result="effect1_dropShadow_14_41"/>
<feBlend mode="normal" in="SourceGraphic" in2="effect1_dropShadow_14_41" result="shape"/>
</filter>
<clipPath id="clip0_14_41">
<rect width="512" height="512" fill="white"/>
</clipPath>
</defs>
</svg>
